G04 #@! TF.GenerationSoftware,KiCad,Pcbnew,5.0.0-fee4fd1~66~ubuntu18.04.1*
G04 #@! TF.CreationDate,2018-08-21T18:43:40-07:00*
G04 #@! TF.ProjectId,L293D BlueTooth UNO Shield,4C3239334420426C7565546F6F746820,rev?*
G04 #@! TF.SameCoordinates,Original*
G04 #@! TF.FileFunction,Soldermask,Top*
G04 #@! TF.FilePolarity,Negative*
%FSLAX46Y46*%
G04 Gerber Fmt 4.6, Leading zero omitted, Abs format (unit mm)*
G04 Created by KiCad (PCBNEW 5.0.0-fee4fd1~66~ubuntu18.04.1) date Tue Aug 21 18:43:40 2018*
%MOMM*%
%LPD*%
G01*
G04 APERTURE LIST*
%ADD10O,1.727200X2.032000*%
%ADD11C,4.064000*%
%ADD12R,1.600000X1.600000*%
%ADD13O,1.600000X1.600000*%
%ADD14C,1.600000*%
%ADD15R,1.700000X1.700000*%
%ADD16O,1.700000X1.700000*%
%ADD17R,1.750000X1.200000*%
%ADD18O,1.750000X1.200000*%
%ADD19C,0.100000*%
%ADD20C,1.425000*%
G04 APERTURE END LIST*
D10*
G04 #@! TO.C,P1*
X138938000Y-123825000D03*
X141478000Y-123825000D03*
X144018000Y-123825000D03*
X146558000Y-123825000D03*
X149098000Y-123825000D03*
X151638000Y-123825000D03*
X154178000Y-123825000D03*
X156718000Y-123825000D03*
G04 #@! TD*
G04 #@! TO.C,P2*
X161798000Y-123825000D03*
X164338000Y-123825000D03*
X166878000Y-123825000D03*
X169418000Y-123825000D03*
X171958000Y-123825000D03*
X174498000Y-123825000D03*
G04 #@! TD*
G04 #@! TO.C,P3*
X129794000Y-75565000D03*
X132334000Y-75565000D03*
X134874000Y-75565000D03*
X137414000Y-75565000D03*
X139954000Y-75565000D03*
X142494000Y-75565000D03*
X145034000Y-75565000D03*
X147574000Y-75565000D03*
X150114000Y-75565000D03*
X152654000Y-75565000D03*
G04 #@! TD*
G04 #@! TO.C,P4*
X156718000Y-75565000D03*
X159258000Y-75565000D03*
X161798000Y-75565000D03*
X164338000Y-75565000D03*
X166878000Y-75565000D03*
X169418000Y-75565000D03*
X171958000Y-75565000D03*
X174498000Y-75565000D03*
G04 #@! TD*
D11*
G04 #@! TO.C,P5*
X124968000Y-123825000D03*
G04 #@! TD*
G04 #@! TO.C,P6*
X177038000Y-118745000D03*
G04 #@! TD*
G04 #@! TO.C,P7*
X126238000Y-75565000D03*
G04 #@! TD*
G04 #@! TO.C,P8*
X177038000Y-90805000D03*
G04 #@! TD*
D12*
G04 #@! TO.C,U1*
X165773100Y-109601000D03*
D13*
X158153100Y-91821000D03*
X165773100Y-107061000D03*
X158153100Y-94361000D03*
X165773100Y-104521000D03*
X158153100Y-96901000D03*
X165773100Y-101981000D03*
X158153100Y-99441000D03*
X165773100Y-99441000D03*
X158153100Y-101981000D03*
X165773100Y-96901000D03*
X158153100Y-104521000D03*
X165773100Y-94361000D03*
X158153100Y-107061000D03*
X165773100Y-91821000D03*
X158153100Y-109601000D03*
G04 #@! TD*
D14*
G04 #@! TO.C,C1*
X134785100Y-83489800D03*
X134785100Y-85989800D03*
G04 #@! TD*
D12*
G04 #@! TO.C,C2*
X144259300Y-83908900D03*
D14*
X144259300Y-86408900D03*
G04 #@! TD*
D15*
G04 #@! TO.C,J1*
X149034500Y-117157500D03*
D16*
X149034500Y-114617500D03*
X149034500Y-112077500D03*
X149034500Y-109537500D03*
G04 #@! TD*
D17*
G04 #@! TO.C,J2*
X125056900Y-83642200D03*
D18*
X125056900Y-85642200D03*
G04 #@! TD*
D17*
G04 #@! TO.C,J3*
X125133100Y-94602300D03*
D18*
X125133100Y-96602300D03*
X125133100Y-98602300D03*
X125133100Y-100602300D03*
G04 #@! TD*
D19*
G04 #@! TO.C,1K*
G36*
X147816504Y-99964204D02*
X147840773Y-99967804D01*
X147864571Y-99973765D01*
X147887671Y-99982030D01*
X147909849Y-99992520D01*
X147930893Y-100005133D01*
X147950598Y-100019747D01*
X147968777Y-100036223D01*
X147985253Y-100054402D01*
X147999867Y-100074107D01*
X148012480Y-100095151D01*
X148022970Y-100117329D01*
X148031235Y-100140429D01*
X148037196Y-100164227D01*
X148040796Y-100188496D01*
X148042000Y-100213000D01*
X148042000Y-101463000D01*
X148040796Y-101487504D01*
X148037196Y-101511773D01*
X148031235Y-101535571D01*
X148022970Y-101558671D01*
X148012480Y-101580849D01*
X147999867Y-101601893D01*
X147985253Y-101621598D01*
X147968777Y-101639777D01*
X147950598Y-101656253D01*
X147930893Y-101670867D01*
X147909849Y-101683480D01*
X147887671Y-101693970D01*
X147864571Y-101702235D01*
X147840773Y-101708196D01*
X147816504Y-101711796D01*
X147792000Y-101713000D01*
X146867000Y-101713000D01*
X146842496Y-101711796D01*
X146818227Y-101708196D01*
X146794429Y-101702235D01*
X146771329Y-101693970D01*
X146749151Y-101683480D01*
X146728107Y-101670867D01*
X146708402Y-101656253D01*
X146690223Y-101639777D01*
X146673747Y-101621598D01*
X146659133Y-101601893D01*
X146646520Y-101580849D01*
X146636030Y-101558671D01*
X146627765Y-101535571D01*
X146621804Y-101511773D01*
X146618204Y-101487504D01*
X146617000Y-101463000D01*
X146617000Y-100213000D01*
X146618204Y-100188496D01*
X146621804Y-100164227D01*
X146627765Y-100140429D01*
X146636030Y-100117329D01*
X146646520Y-100095151D01*
X146659133Y-100074107D01*
X146673747Y-100054402D01*
X146690223Y-100036223D01*
X146708402Y-100019747D01*
X146728107Y-100005133D01*
X146749151Y-99992520D01*
X146771329Y-99982030D01*
X146794429Y-99973765D01*
X146818227Y-99967804D01*
X146842496Y-99964204D01*
X146867000Y-99963000D01*
X147792000Y-99963000D01*
X147816504Y-99964204D01*
X147816504Y-99964204D01*
G37*
D20*
X147329500Y-100838000D03*
D19*
G36*
X150791504Y-99964204D02*
X150815773Y-99967804D01*
X150839571Y-99973765D01*
X150862671Y-99982030D01*
X150884849Y-99992520D01*
X150905893Y-100005133D01*
X150925598Y-100019747D01*
X150943777Y-100036223D01*
X150960253Y-100054402D01*
X150974867Y-100074107D01*
X150987480Y-100095151D01*
X150997970Y-100117329D01*
X151006235Y-100140429D01*
X151012196Y-100164227D01*
X151015796Y-100188496D01*
X151017000Y-100213000D01*
X151017000Y-101463000D01*
X151015796Y-101487504D01*
X151012196Y-101511773D01*
X151006235Y-101535571D01*
X150997970Y-101558671D01*
X150987480Y-101580849D01*
X150974867Y-101601893D01*
X150960253Y-101621598D01*
X150943777Y-101639777D01*
X150925598Y-101656253D01*
X150905893Y-101670867D01*
X150884849Y-101683480D01*
X150862671Y-101693970D01*
X150839571Y-101702235D01*
X150815773Y-101708196D01*
X150791504Y-101711796D01*
X150767000Y-101713000D01*
X149842000Y-101713000D01*
X149817496Y-101711796D01*
X149793227Y-101708196D01*
X149769429Y-101702235D01*
X149746329Y-101693970D01*
X149724151Y-101683480D01*
X149703107Y-101670867D01*
X149683402Y-101656253D01*
X149665223Y-101639777D01*
X149648747Y-101621598D01*
X149634133Y-101601893D01*
X149621520Y-101580849D01*
X149611030Y-101558671D01*
X149602765Y-101535571D01*
X149596804Y-101511773D01*
X149593204Y-101487504D01*
X149592000Y-101463000D01*
X149592000Y-100213000D01*
X149593204Y-100188496D01*
X149596804Y-100164227D01*
X149602765Y-100140429D01*
X149611030Y-100117329D01*
X149621520Y-100095151D01*
X149634133Y-100074107D01*
X149648747Y-100054402D01*
X149665223Y-100036223D01*
X149683402Y-100019747D01*
X149703107Y-100005133D01*
X149724151Y-99992520D01*
X149746329Y-99982030D01*
X149769429Y-99973765D01*
X149793227Y-99967804D01*
X149817496Y-99964204D01*
X149842000Y-99963000D01*
X150767000Y-99963000D01*
X150791504Y-99964204D01*
X150791504Y-99964204D01*
G37*
D20*
X150304500Y-100838000D03*
G04 #@! TD*
D19*
G04 #@! TO.C,2K*
G36*
X147981604Y-93093504D02*
X148005873Y-93097104D01*
X148029671Y-93103065D01*
X148052771Y-93111330D01*
X148074949Y-93121820D01*
X148095993Y-93134433D01*
X148115698Y-93149047D01*
X148133877Y-93165523D01*
X148150353Y-93183702D01*
X148164967Y-93203407D01*
X148177580Y-93224451D01*
X148188070Y-93246629D01*
X148196335Y-93269729D01*
X148202296Y-93293527D01*
X148205896Y-93317796D01*
X148207100Y-93342300D01*
X148207100Y-94592300D01*
X148205896Y-94616804D01*
X148202296Y-94641073D01*
X148196335Y-94664871D01*
X148188070Y-94687971D01*
X148177580Y-94710149D01*
X148164967Y-94731193D01*
X148150353Y-94750898D01*
X148133877Y-94769077D01*
X148115698Y-94785553D01*
X148095993Y-94800167D01*
X148074949Y-94812780D01*
X148052771Y-94823270D01*
X148029671Y-94831535D01*
X148005873Y-94837496D01*
X147981604Y-94841096D01*
X147957100Y-94842300D01*
X147032100Y-94842300D01*
X147007596Y-94841096D01*
X146983327Y-94837496D01*
X146959529Y-94831535D01*
X146936429Y-94823270D01*
X146914251Y-94812780D01*
X146893207Y-94800167D01*
X146873502Y-94785553D01*
X146855323Y-94769077D01*
X146838847Y-94750898D01*
X146824233Y-94731193D01*
X146811620Y-94710149D01*
X146801130Y-94687971D01*
X146792865Y-94664871D01*
X146786904Y-94641073D01*
X146783304Y-94616804D01*
X146782100Y-94592300D01*
X146782100Y-93342300D01*
X146783304Y-93317796D01*
X146786904Y-93293527D01*
X146792865Y-93269729D01*
X146801130Y-93246629D01*
X146811620Y-93224451D01*
X146824233Y-93203407D01*
X146838847Y-93183702D01*
X146855323Y-93165523D01*
X146873502Y-93149047D01*
X146893207Y-93134433D01*
X146914251Y-93121820D01*
X146936429Y-93111330D01*
X146959529Y-93103065D01*
X146983327Y-93097104D01*
X147007596Y-93093504D01*
X147032100Y-93092300D01*
X147957100Y-93092300D01*
X147981604Y-93093504D01*
X147981604Y-93093504D01*
G37*
D20*
X147494600Y-93967300D03*
D19*
G36*
X150956604Y-93093504D02*
X150980873Y-93097104D01*
X151004671Y-93103065D01*
X151027771Y-93111330D01*
X151049949Y-93121820D01*
X151070993Y-93134433D01*
X151090698Y-93149047D01*
X151108877Y-93165523D01*
X151125353Y-93183702D01*
X151139967Y-93203407D01*
X151152580Y-93224451D01*
X151163070Y-93246629D01*
X151171335Y-93269729D01*
X151177296Y-93293527D01*
X151180896Y-93317796D01*
X151182100Y-93342300D01*
X151182100Y-94592300D01*
X151180896Y-94616804D01*
X151177296Y-94641073D01*
X151171335Y-94664871D01*
X151163070Y-94687971D01*
X151152580Y-94710149D01*
X151139967Y-94731193D01*
X151125353Y-94750898D01*
X151108877Y-94769077D01*
X151090698Y-94785553D01*
X151070993Y-94800167D01*
X151049949Y-94812780D01*
X151027771Y-94823270D01*
X151004671Y-94831535D01*
X150980873Y-94837496D01*
X150956604Y-94841096D01*
X150932100Y-94842300D01*
X150007100Y-94842300D01*
X149982596Y-94841096D01*
X149958327Y-94837496D01*
X149934529Y-94831535D01*
X149911429Y-94823270D01*
X149889251Y-94812780D01*
X149868207Y-94800167D01*
X149848502Y-94785553D01*
X149830323Y-94769077D01*
X149813847Y-94750898D01*
X149799233Y-94731193D01*
X149786620Y-94710149D01*
X149776130Y-94687971D01*
X149767865Y-94664871D01*
X149761904Y-94641073D01*
X149758304Y-94616804D01*
X149757100Y-94592300D01*
X149757100Y-93342300D01*
X149758304Y-93317796D01*
X149761904Y-93293527D01*
X149767865Y-93269729D01*
X149776130Y-93246629D01*
X149786620Y-93224451D01*
X149799233Y-93203407D01*
X149813847Y-93183702D01*
X149830323Y-93165523D01*
X149848502Y-93149047D01*
X149868207Y-93134433D01*
X149889251Y-93121820D01*
X149911429Y-93111330D01*
X149934529Y-93103065D01*
X149958327Y-93097104D01*
X149982596Y-93093504D01*
X150007100Y-93092300D01*
X150932100Y-93092300D01*
X150956604Y-93093504D01*
X150956604Y-93093504D01*
G37*
D20*
X150469600Y-93967300D03*
G04 #@! TD*
D17*
G04 #@! TO.C,D1*
X124891800Y-112903000D03*
D18*
X124891800Y-114903000D03*
G04 #@! TD*
D19*
G04 #@! TO.C,150R1*
G36*
X138891604Y-115940804D02*
X138915873Y-115944404D01*
X138939671Y-115950365D01*
X138962771Y-115958630D01*
X138984949Y-115969120D01*
X139005993Y-115981733D01*
X139025698Y-115996347D01*
X139043877Y-116012823D01*
X139060353Y-116031002D01*
X139074967Y-116050707D01*
X139087580Y-116071751D01*
X139098070Y-116093929D01*
X139106335Y-116117029D01*
X139112296Y-116140827D01*
X139115896Y-116165096D01*
X139117100Y-116189600D01*
X139117100Y-117439600D01*
X139115896Y-117464104D01*
X139112296Y-117488373D01*
X139106335Y-117512171D01*
X139098070Y-117535271D01*
X139087580Y-117557449D01*
X139074967Y-117578493D01*
X139060353Y-117598198D01*
X139043877Y-117616377D01*
X139025698Y-117632853D01*
X139005993Y-117647467D01*
X138984949Y-117660080D01*
X138962771Y-117670570D01*
X138939671Y-117678835D01*
X138915873Y-117684796D01*
X138891604Y-117688396D01*
X138867100Y-117689600D01*
X137942100Y-117689600D01*
X137917596Y-117688396D01*
X137893327Y-117684796D01*
X137869529Y-117678835D01*
X137846429Y-117670570D01*
X137824251Y-117660080D01*
X137803207Y-117647467D01*
X137783502Y-117632853D01*
X137765323Y-117616377D01*
X137748847Y-117598198D01*
X137734233Y-117578493D01*
X137721620Y-117557449D01*
X137711130Y-117535271D01*
X137702865Y-117512171D01*
X137696904Y-117488373D01*
X137693304Y-117464104D01*
X137692100Y-117439600D01*
X137692100Y-116189600D01*
X137693304Y-116165096D01*
X137696904Y-116140827D01*
X137702865Y-116117029D01*
X137711130Y-116093929D01*
X137721620Y-116071751D01*
X137734233Y-116050707D01*
X137748847Y-116031002D01*
X137765323Y-116012823D01*
X137783502Y-115996347D01*
X137803207Y-115981733D01*
X137824251Y-115969120D01*
X137846429Y-115958630D01*
X137869529Y-115950365D01*
X137893327Y-115944404D01*
X137917596Y-115940804D01*
X137942100Y-115939600D01*
X138867100Y-115939600D01*
X138891604Y-115940804D01*
X138891604Y-115940804D01*
G37*
D20*
X138404600Y-116814600D03*
D19*
G36*
X135916604Y-115940804D02*
X135940873Y-115944404D01*
X135964671Y-115950365D01*
X135987771Y-115958630D01*
X136009949Y-115969120D01*
X136030993Y-115981733D01*
X136050698Y-115996347D01*
X136068877Y-116012823D01*
X136085353Y-116031002D01*
X136099967Y-116050707D01*
X136112580Y-116071751D01*
X136123070Y-116093929D01*
X136131335Y-116117029D01*
X136137296Y-116140827D01*
X136140896Y-116165096D01*
X136142100Y-116189600D01*
X136142100Y-117439600D01*
X136140896Y-117464104D01*
X136137296Y-117488373D01*
X136131335Y-117512171D01*
X136123070Y-117535271D01*
X136112580Y-117557449D01*
X136099967Y-117578493D01*
X136085353Y-117598198D01*
X136068877Y-117616377D01*
X136050698Y-117632853D01*
X136030993Y-117647467D01*
X136009949Y-117660080D01*
X135987771Y-117670570D01*
X135964671Y-117678835D01*
X135940873Y-117684796D01*
X135916604Y-117688396D01*
X135892100Y-117689600D01*
X134967100Y-117689600D01*
X134942596Y-117688396D01*
X134918327Y-117684796D01*
X134894529Y-117678835D01*
X134871429Y-117670570D01*
X134849251Y-117660080D01*
X134828207Y-117647467D01*
X134808502Y-117632853D01*
X134790323Y-117616377D01*
X134773847Y-117598198D01*
X134759233Y-117578493D01*
X134746620Y-117557449D01*
X134736130Y-117535271D01*
X134727865Y-117512171D01*
X134721904Y-117488373D01*
X134718304Y-117464104D01*
X134717100Y-117439600D01*
X134717100Y-116189600D01*
X134718304Y-116165096D01*
X134721904Y-116140827D01*
X134727865Y-116117029D01*
X134736130Y-116093929D01*
X134746620Y-116071751D01*
X134759233Y-116050707D01*
X134773847Y-116031002D01*
X134790323Y-116012823D01*
X134808502Y-115996347D01*
X134828207Y-115981733D01*
X134849251Y-115969120D01*
X134871429Y-115958630D01*
X134894529Y-115950365D01*
X134918327Y-115944404D01*
X134942596Y-115940804D01*
X134967100Y-115939600D01*
X135892100Y-115939600D01*
X135916604Y-115940804D01*
X135916604Y-115940804D01*
G37*
D20*
X135429600Y-116814600D03*
G04 #@! TD*
M02*
