G04 #@! TF.GenerationSoftware,KiCad,Pcbnew,5.0.0-fee4fd1~66~ubuntu18.04.1*
G04 #@! TF.CreationDate,2018-08-21T18:43:40-07:00*
G04 #@! TF.ProjectId,L293D BlueTooth UNO Shield,4C3239334420426C7565546F6F746820,rev?*
G04 #@! TF.SameCoordinates,Original*
G04 #@! TF.FileFunction,Soldermask,Bot*
G04 #@! TF.FilePolarity,Negative*
%FSLAX46Y46*%
G04 Gerber Fmt 4.6, Leading zero omitted, Abs format (unit mm)*
G04 Created by KiCad (PCBNEW 5.0.0-fee4fd1~66~ubuntu18.04.1) date Tue Aug 21 18:43:40 2018*
%MOMM*%
%LPD*%
G01*
G04 APERTURE LIST*
%ADD10O,1.727200X2.032000*%
%ADD11C,4.064000*%
%ADD12R,1.600000X1.600000*%
%ADD13O,1.600000X1.600000*%
%ADD14C,1.600000*%
%ADD15R,1.700000X1.700000*%
%ADD16O,1.700000X1.700000*%
%ADD17R,1.750000X1.200000*%
%ADD18O,1.750000X1.200000*%
G04 APERTURE END LIST*
D10*
G04 #@! TO.C,P1*
X138938000Y-123825000D03*
X141478000Y-123825000D03*
X144018000Y-123825000D03*
X146558000Y-123825000D03*
X149098000Y-123825000D03*
X151638000Y-123825000D03*
X154178000Y-123825000D03*
X156718000Y-123825000D03*
G04 #@! TD*
G04 #@! TO.C,P2*
X161798000Y-123825000D03*
X164338000Y-123825000D03*
X166878000Y-123825000D03*
X169418000Y-123825000D03*
X171958000Y-123825000D03*
X174498000Y-123825000D03*
G04 #@! TD*
G04 #@! TO.C,P3*
X129794000Y-75565000D03*
X132334000Y-75565000D03*
X134874000Y-75565000D03*
X137414000Y-75565000D03*
X139954000Y-75565000D03*
X142494000Y-75565000D03*
X145034000Y-75565000D03*
X147574000Y-75565000D03*
X150114000Y-75565000D03*
X152654000Y-75565000D03*
G04 #@! TD*
G04 #@! TO.C,P4*
X156718000Y-75565000D03*
X159258000Y-75565000D03*
X161798000Y-75565000D03*
X164338000Y-75565000D03*
X166878000Y-75565000D03*
X169418000Y-75565000D03*
X171958000Y-75565000D03*
X174498000Y-75565000D03*
G04 #@! TD*
D11*
G04 #@! TO.C,P5*
X124968000Y-123825000D03*
G04 #@! TD*
G04 #@! TO.C,P6*
X177038000Y-118745000D03*
G04 #@! TD*
G04 #@! TO.C,P7*
X126238000Y-75565000D03*
G04 #@! TD*
G04 #@! TO.C,P8*
X177038000Y-90805000D03*
G04 #@! TD*
D12*
G04 #@! TO.C,U1*
X165773100Y-109601000D03*
D13*
X158153100Y-91821000D03*
X165773100Y-107061000D03*
X158153100Y-94361000D03*
X165773100Y-104521000D03*
X158153100Y-96901000D03*
X165773100Y-101981000D03*
X158153100Y-99441000D03*
X165773100Y-99441000D03*
X158153100Y-101981000D03*
X165773100Y-96901000D03*
X158153100Y-104521000D03*
X165773100Y-94361000D03*
X158153100Y-107061000D03*
X165773100Y-91821000D03*
X158153100Y-109601000D03*
G04 #@! TD*
D14*
G04 #@! TO.C,C1*
X134785100Y-83489800D03*
X134785100Y-85989800D03*
G04 #@! TD*
D12*
G04 #@! TO.C,C2*
X144259300Y-83908900D03*
D14*
X144259300Y-86408900D03*
G04 #@! TD*
D15*
G04 #@! TO.C,J1*
X149034500Y-117157500D03*
D16*
X149034500Y-114617500D03*
X149034500Y-112077500D03*
X149034500Y-109537500D03*
G04 #@! TD*
D17*
G04 #@! TO.C,J2*
X125056900Y-83642200D03*
D18*
X125056900Y-85642200D03*
G04 #@! TD*
D17*
G04 #@! TO.C,J3*
X125133100Y-94602300D03*
D18*
X125133100Y-96602300D03*
X125133100Y-98602300D03*
X125133100Y-100602300D03*
G04 #@! TD*
D17*
G04 #@! TO.C,D1*
X124891800Y-112903000D03*
D18*
X124891800Y-114903000D03*
G04 #@! TD*
M02*
