G04 #@! TF.GenerationSoftware,KiCad,Pcbnew,5.0.0-fee4fd1~66~ubuntu18.04.1*
G04 #@! TF.CreationDate,2018-08-21T18:43:40-07:00*
G04 #@! TF.ProjectId,L293D BlueTooth UNO Shield,4C3239334420426C7565546F6F746820,rev?*
G04 #@! TF.SameCoordinates,Original*
G04 #@! TF.FileFunction,Copper,L1,Top,Signal*
G04 #@! TF.FilePolarity,Positive*
%FSLAX46Y46*%
G04 Gerber Fmt 4.6, Leading zero omitted, Abs format (unit mm)*
G04 Created by KiCad (PCBNEW 5.0.0-fee4fd1~66~ubuntu18.04.1) date Tue Aug 21 18:43:40 2018*
%MOMM*%
%LPD*%
G01*
G04 APERTURE LIST*
G04 #@! TA.AperFunction,ComponentPad*
%ADD10O,1.727200X2.032000*%
G04 #@! TD*
G04 #@! TA.AperFunction,ComponentPad*
%ADD11C,4.064000*%
G04 #@! TD*
G04 #@! TA.AperFunction,ComponentPad*
%ADD12R,1.600000X1.600000*%
G04 #@! TD*
G04 #@! TA.AperFunction,ComponentPad*
%ADD13O,1.600000X1.600000*%
G04 #@! TD*
G04 #@! TA.AperFunction,ComponentPad*
%ADD14C,1.600000*%
G04 #@! TD*
G04 #@! TA.AperFunction,ComponentPad*
%ADD15R,1.700000X1.700000*%
G04 #@! TD*
G04 #@! TA.AperFunction,ComponentPad*
%ADD16O,1.700000X1.700000*%
G04 #@! TD*
G04 #@! TA.AperFunction,ComponentPad*
%ADD17R,1.750000X1.200000*%
G04 #@! TD*
G04 #@! TA.AperFunction,ComponentPad*
%ADD18O,1.750000X1.200000*%
G04 #@! TD*
G04 #@! TA.AperFunction,Conductor*
%ADD19C,0.100000*%
G04 #@! TD*
G04 #@! TA.AperFunction,SMDPad,CuDef*
%ADD20C,1.425000*%
G04 #@! TD*
G04 #@! TA.AperFunction,ViaPad*
%ADD21C,0.685800*%
G04 #@! TD*
G04 #@! TA.AperFunction,Conductor*
%ADD22C,0.762000*%
G04 #@! TD*
G04 #@! TA.AperFunction,Conductor*
%ADD23C,0.254000*%
G04 #@! TD*
G04 APERTURE END LIST*
D10*
G04 #@! TO.P,P1,1*
G04 #@! TO.N,Net-(P1-Pad1)*
X138938000Y-123825000D03*
G04 #@! TO.P,P1,2*
G04 #@! TO.N,Net-(P1-Pad2)*
X141478000Y-123825000D03*
G04 #@! TO.P,P1,3*
G04 #@! TO.N,Net-(P1-Pad3)*
X144018000Y-123825000D03*
G04 #@! TO.P,P1,4*
G04 #@! TO.N,+3V3*
X146558000Y-123825000D03*
G04 #@! TO.P,P1,5*
G04 #@! TO.N,+5V*
X149098000Y-123825000D03*
G04 #@! TO.P,P1,6*
G04 #@! TO.N,GND*
X151638000Y-123825000D03*
G04 #@! TO.P,P1,7*
X154178000Y-123825000D03*
G04 #@! TO.P,P1,8*
G04 #@! TO.N,Net-(P1-Pad8)*
X156718000Y-123825000D03*
G04 #@! TD*
G04 #@! TO.P,P2,1*
G04 #@! TO.N,Net-(P2-Pad1)*
X161798000Y-123825000D03*
G04 #@! TO.P,P2,2*
G04 #@! TO.N,Net-(P2-Pad2)*
X164338000Y-123825000D03*
G04 #@! TO.P,P2,3*
G04 #@! TO.N,Net-(P2-Pad3)*
X166878000Y-123825000D03*
G04 #@! TO.P,P2,4*
G04 #@! TO.N,Net-(P2-Pad4)*
X169418000Y-123825000D03*
G04 #@! TO.P,P2,5*
G04 #@! TO.N,Net-(P2-Pad5)*
X171958000Y-123825000D03*
G04 #@! TO.P,P2,6*
G04 #@! TO.N,Net-(P2-Pad6)*
X174498000Y-123825000D03*
G04 #@! TD*
G04 #@! TO.P,P3,1*
G04 #@! TO.N,Net-(P3-Pad1)*
X129794000Y-75565000D03*
G04 #@! TO.P,P3,2*
G04 #@! TO.N,Net-(P3-Pad2)*
X132334000Y-75565000D03*
G04 #@! TO.P,P3,3*
G04 #@! TO.N,Net-(P3-Pad3)*
X134874000Y-75565000D03*
G04 #@! TO.P,P3,4*
G04 #@! TO.N,GND*
X137414000Y-75565000D03*
G04 #@! TO.P,P3,5*
G04 #@! TO.N,Net-(P3-Pad5)*
X139954000Y-75565000D03*
G04 #@! TO.P,P3,6*
G04 #@! TO.N,Net-(P3-Pad6)*
X142494000Y-75565000D03*
G04 #@! TO.P,P3,7*
G04 #@! TO.N,Net-(P3-Pad7)*
X145034000Y-75565000D03*
G04 #@! TO.P,P3,8*
G04 #@! TO.N,/10(\002A\002A/SS)*
X147574000Y-75565000D03*
G04 #@! TO.P,P3,9*
G04 #@! TO.N,/9(\002A\002A)*
X150114000Y-75565000D03*
G04 #@! TO.P,P3,10*
G04 #@! TO.N,/8*
X152654000Y-75565000D03*
G04 #@! TD*
G04 #@! TO.P,P4,1*
G04 #@! TO.N,/7*
X156718000Y-75565000D03*
G04 #@! TO.P,P4,2*
G04 #@! TO.N,/6(\002A\002A)*
X159258000Y-75565000D03*
G04 #@! TO.P,P4,3*
G04 #@! TO.N,/5(\002A\002A)*
X161798000Y-75565000D03*
G04 #@! TO.P,P4,4*
G04 #@! TO.N,/4*
X164338000Y-75565000D03*
G04 #@! TO.P,P4,5*
G04 #@! TO.N,/3(\002A\002A)*
X166878000Y-75565000D03*
G04 #@! TO.P,P4,6*
G04 #@! TO.N,Net-(P4-Pad6)*
X169418000Y-75565000D03*
G04 #@! TO.P,P4,7*
G04 #@! TO.N,Net-(P4-Pad7)*
X171958000Y-75565000D03*
G04 #@! TO.P,P4,8*
G04 #@! TO.N,Net-(P4-Pad8)*
X174498000Y-75565000D03*
G04 #@! TD*
D11*
G04 #@! TO.P,P5,1*
G04 #@! TO.N,Net-(P5-Pad1)*
X124968000Y-123825000D03*
G04 #@! TD*
G04 #@! TO.P,P6,1*
G04 #@! TO.N,Net-(P6-Pad1)*
X177038000Y-118745000D03*
G04 #@! TD*
G04 #@! TO.P,P7,1*
G04 #@! TO.N,Net-(P7-Pad1)*
X126238000Y-75565000D03*
G04 #@! TD*
G04 #@! TO.P,P8,1*
G04 #@! TO.N,Net-(P8-Pad1)*
X177038000Y-90805000D03*
G04 #@! TD*
D12*
G04 #@! TO.P,U1,1*
G04 #@! TO.N,/9(\002A\002A)*
X165773100Y-109601000D03*
D13*
G04 #@! TO.P,U1,9*
G04 #@! TO.N,/10(\002A\002A/SS)*
X158153100Y-91821000D03*
G04 #@! TO.P,U1,2*
G04 #@! TO.N,/7*
X165773100Y-107061000D03*
G04 #@! TO.P,U1,10*
G04 #@! TO.N,/6(\002A\002A)*
X158153100Y-94361000D03*
G04 #@! TO.P,U1,3*
G04 #@! TO.N,Net-(J3-Pad2)*
X165773100Y-104521000D03*
G04 #@! TO.P,U1,11*
G04 #@! TO.N,Net-(J3-Pad3)*
X158153100Y-96901000D03*
G04 #@! TO.P,U1,4*
G04 #@! TO.N,GND*
X165773100Y-101981000D03*
G04 #@! TO.P,U1,12*
X158153100Y-99441000D03*
G04 #@! TO.P,U1,5*
X165773100Y-99441000D03*
G04 #@! TO.P,U1,13*
X158153100Y-101981000D03*
G04 #@! TO.P,U1,6*
G04 #@! TO.N,Net-(J3-Pad1)*
X165773100Y-96901000D03*
G04 #@! TO.P,U1,14*
G04 #@! TO.N,Net-(J3-Pad4)*
X158153100Y-104521000D03*
G04 #@! TO.P,U1,7*
G04 #@! TO.N,/8*
X165773100Y-94361000D03*
G04 #@! TO.P,U1,15*
G04 #@! TO.N,/5(\002A\002A)*
X158153100Y-107061000D03*
G04 #@! TO.P,U1,8*
G04 #@! TO.N,+6V*
X165773100Y-91821000D03*
G04 #@! TO.P,U1,16*
G04 #@! TO.N,+5V*
X158153100Y-109601000D03*
G04 #@! TD*
D14*
G04 #@! TO.P,C1,1*
G04 #@! TO.N,+6V*
X134785100Y-83489800D03*
G04 #@! TO.P,C1,2*
G04 #@! TO.N,GND*
X134785100Y-85989800D03*
G04 #@! TD*
D12*
G04 #@! TO.P,C2,1*
G04 #@! TO.N,+6V*
X144259300Y-83908900D03*
D14*
G04 #@! TO.P,C2,2*
G04 #@! TO.N,GND*
X144259300Y-86408900D03*
G04 #@! TD*
D15*
G04 #@! TO.P,J1,1*
G04 #@! TO.N,+5V*
X149034500Y-117157500D03*
D16*
G04 #@! TO.P,J1,2*
G04 #@! TO.N,GND*
X149034500Y-114617500D03*
G04 #@! TO.P,J1,3*
G04 #@! TO.N,/3(\002A\002A)*
X149034500Y-112077500D03*
G04 #@! TO.P,J1,4*
G04 #@! TO.N,Net-(J1-Pad4)*
X149034500Y-109537500D03*
G04 #@! TD*
D17*
G04 #@! TO.P,J2,1*
G04 #@! TO.N,GND*
X125056900Y-83642200D03*
D18*
G04 #@! TO.P,J2,2*
G04 #@! TO.N,+6V*
X125056900Y-85642200D03*
G04 #@! TD*
D17*
G04 #@! TO.P,J3,1*
G04 #@! TO.N,Net-(J3-Pad1)*
X125133100Y-94602300D03*
D18*
G04 #@! TO.P,J3,2*
G04 #@! TO.N,Net-(J3-Pad2)*
X125133100Y-96602300D03*
G04 #@! TO.P,J3,3*
G04 #@! TO.N,Net-(J3-Pad3)*
X125133100Y-98602300D03*
G04 #@! TO.P,J3,4*
G04 #@! TO.N,Net-(J3-Pad4)*
X125133100Y-100602300D03*
G04 #@! TD*
D19*
G04 #@! TO.N,/4*
G04 #@! TO.C,1K*
G36*
X147816504Y-99964204D02*
X147840773Y-99967804D01*
X147864571Y-99973765D01*
X147887671Y-99982030D01*
X147909849Y-99992520D01*
X147930893Y-100005133D01*
X147950598Y-100019747D01*
X147968777Y-100036223D01*
X147985253Y-100054402D01*
X147999867Y-100074107D01*
X148012480Y-100095151D01*
X148022970Y-100117329D01*
X148031235Y-100140429D01*
X148037196Y-100164227D01*
X148040796Y-100188496D01*
X148042000Y-100213000D01*
X148042000Y-101463000D01*
X148040796Y-101487504D01*
X148037196Y-101511773D01*
X148031235Y-101535571D01*
X148022970Y-101558671D01*
X148012480Y-101580849D01*
X147999867Y-101601893D01*
X147985253Y-101621598D01*
X147968777Y-101639777D01*
X147950598Y-101656253D01*
X147930893Y-101670867D01*
X147909849Y-101683480D01*
X147887671Y-101693970D01*
X147864571Y-101702235D01*
X147840773Y-101708196D01*
X147816504Y-101711796D01*
X147792000Y-101713000D01*
X146867000Y-101713000D01*
X146842496Y-101711796D01*
X146818227Y-101708196D01*
X146794429Y-101702235D01*
X146771329Y-101693970D01*
X146749151Y-101683480D01*
X146728107Y-101670867D01*
X146708402Y-101656253D01*
X146690223Y-101639777D01*
X146673747Y-101621598D01*
X146659133Y-101601893D01*
X146646520Y-101580849D01*
X146636030Y-101558671D01*
X146627765Y-101535571D01*
X146621804Y-101511773D01*
X146618204Y-101487504D01*
X146617000Y-101463000D01*
X146617000Y-100213000D01*
X146618204Y-100188496D01*
X146621804Y-100164227D01*
X146627765Y-100140429D01*
X146636030Y-100117329D01*
X146646520Y-100095151D01*
X146659133Y-100074107D01*
X146673747Y-100054402D01*
X146690223Y-100036223D01*
X146708402Y-100019747D01*
X146728107Y-100005133D01*
X146749151Y-99992520D01*
X146771329Y-99982030D01*
X146794429Y-99973765D01*
X146818227Y-99967804D01*
X146842496Y-99964204D01*
X146867000Y-99963000D01*
X147792000Y-99963000D01*
X147816504Y-99964204D01*
X147816504Y-99964204D01*
G37*
D20*
G04 #@! TD*
G04 #@! TO.P,1K,1*
G04 #@! TO.N,/4*
X147329500Y-100838000D03*
D19*
G04 #@! TO.N,Net-(J1-Pad4)*
G04 #@! TO.C,1K*
G36*
X150791504Y-99964204D02*
X150815773Y-99967804D01*
X150839571Y-99973765D01*
X150862671Y-99982030D01*
X150884849Y-99992520D01*
X150905893Y-100005133D01*
X150925598Y-100019747D01*
X150943777Y-100036223D01*
X150960253Y-100054402D01*
X150974867Y-100074107D01*
X150987480Y-100095151D01*
X150997970Y-100117329D01*
X151006235Y-100140429D01*
X151012196Y-100164227D01*
X151015796Y-100188496D01*
X151017000Y-100213000D01*
X151017000Y-101463000D01*
X151015796Y-101487504D01*
X151012196Y-101511773D01*
X151006235Y-101535571D01*
X150997970Y-101558671D01*
X150987480Y-101580849D01*
X150974867Y-101601893D01*
X150960253Y-101621598D01*
X150943777Y-101639777D01*
X150925598Y-101656253D01*
X150905893Y-101670867D01*
X150884849Y-101683480D01*
X150862671Y-101693970D01*
X150839571Y-101702235D01*
X150815773Y-101708196D01*
X150791504Y-101711796D01*
X150767000Y-101713000D01*
X149842000Y-101713000D01*
X149817496Y-101711796D01*
X149793227Y-101708196D01*
X149769429Y-101702235D01*
X149746329Y-101693970D01*
X149724151Y-101683480D01*
X149703107Y-101670867D01*
X149683402Y-101656253D01*
X149665223Y-101639777D01*
X149648747Y-101621598D01*
X149634133Y-101601893D01*
X149621520Y-101580849D01*
X149611030Y-101558671D01*
X149602765Y-101535571D01*
X149596804Y-101511773D01*
X149593204Y-101487504D01*
X149592000Y-101463000D01*
X149592000Y-100213000D01*
X149593204Y-100188496D01*
X149596804Y-100164227D01*
X149602765Y-100140429D01*
X149611030Y-100117329D01*
X149621520Y-100095151D01*
X149634133Y-100074107D01*
X149648747Y-100054402D01*
X149665223Y-100036223D01*
X149683402Y-100019747D01*
X149703107Y-100005133D01*
X149724151Y-99992520D01*
X149746329Y-99982030D01*
X149769429Y-99973765D01*
X149793227Y-99967804D01*
X149817496Y-99964204D01*
X149842000Y-99963000D01*
X150767000Y-99963000D01*
X150791504Y-99964204D01*
X150791504Y-99964204D01*
G37*
D20*
G04 #@! TD*
G04 #@! TO.P,1K,2*
G04 #@! TO.N,Net-(J1-Pad4)*
X150304500Y-100838000D03*
D19*
G04 #@! TO.N,/4*
G04 #@! TO.C,2K*
G36*
X147981604Y-93093504D02*
X148005873Y-93097104D01*
X148029671Y-93103065D01*
X148052771Y-93111330D01*
X148074949Y-93121820D01*
X148095993Y-93134433D01*
X148115698Y-93149047D01*
X148133877Y-93165523D01*
X148150353Y-93183702D01*
X148164967Y-93203407D01*
X148177580Y-93224451D01*
X148188070Y-93246629D01*
X148196335Y-93269729D01*
X148202296Y-93293527D01*
X148205896Y-93317796D01*
X148207100Y-93342300D01*
X148207100Y-94592300D01*
X148205896Y-94616804D01*
X148202296Y-94641073D01*
X148196335Y-94664871D01*
X148188070Y-94687971D01*
X148177580Y-94710149D01*
X148164967Y-94731193D01*
X148150353Y-94750898D01*
X148133877Y-94769077D01*
X148115698Y-94785553D01*
X148095993Y-94800167D01*
X148074949Y-94812780D01*
X148052771Y-94823270D01*
X148029671Y-94831535D01*
X148005873Y-94837496D01*
X147981604Y-94841096D01*
X147957100Y-94842300D01*
X147032100Y-94842300D01*
X147007596Y-94841096D01*
X146983327Y-94837496D01*
X146959529Y-94831535D01*
X146936429Y-94823270D01*
X146914251Y-94812780D01*
X146893207Y-94800167D01*
X146873502Y-94785553D01*
X146855323Y-94769077D01*
X146838847Y-94750898D01*
X146824233Y-94731193D01*
X146811620Y-94710149D01*
X146801130Y-94687971D01*
X146792865Y-94664871D01*
X146786904Y-94641073D01*
X146783304Y-94616804D01*
X146782100Y-94592300D01*
X146782100Y-93342300D01*
X146783304Y-93317796D01*
X146786904Y-93293527D01*
X146792865Y-93269729D01*
X146801130Y-93246629D01*
X146811620Y-93224451D01*
X146824233Y-93203407D01*
X146838847Y-93183702D01*
X146855323Y-93165523D01*
X146873502Y-93149047D01*
X146893207Y-93134433D01*
X146914251Y-93121820D01*
X146936429Y-93111330D01*
X146959529Y-93103065D01*
X146983327Y-93097104D01*
X147007596Y-93093504D01*
X147032100Y-93092300D01*
X147957100Y-93092300D01*
X147981604Y-93093504D01*
X147981604Y-93093504D01*
G37*
D20*
G04 #@! TD*
G04 #@! TO.P,2K,2*
G04 #@! TO.N,/4*
X147494600Y-93967300D03*
D19*
G04 #@! TO.N,GND*
G04 #@! TO.C,2K*
G36*
X150956604Y-93093504D02*
X150980873Y-93097104D01*
X151004671Y-93103065D01*
X151027771Y-93111330D01*
X151049949Y-93121820D01*
X151070993Y-93134433D01*
X151090698Y-93149047D01*
X151108877Y-93165523D01*
X151125353Y-93183702D01*
X151139967Y-93203407D01*
X151152580Y-93224451D01*
X151163070Y-93246629D01*
X151171335Y-93269729D01*
X151177296Y-93293527D01*
X151180896Y-93317796D01*
X151182100Y-93342300D01*
X151182100Y-94592300D01*
X151180896Y-94616804D01*
X151177296Y-94641073D01*
X151171335Y-94664871D01*
X151163070Y-94687971D01*
X151152580Y-94710149D01*
X151139967Y-94731193D01*
X151125353Y-94750898D01*
X151108877Y-94769077D01*
X151090698Y-94785553D01*
X151070993Y-94800167D01*
X151049949Y-94812780D01*
X151027771Y-94823270D01*
X151004671Y-94831535D01*
X150980873Y-94837496D01*
X150956604Y-94841096D01*
X150932100Y-94842300D01*
X150007100Y-94842300D01*
X149982596Y-94841096D01*
X149958327Y-94837496D01*
X149934529Y-94831535D01*
X149911429Y-94823270D01*
X149889251Y-94812780D01*
X149868207Y-94800167D01*
X149848502Y-94785553D01*
X149830323Y-94769077D01*
X149813847Y-94750898D01*
X149799233Y-94731193D01*
X149786620Y-94710149D01*
X149776130Y-94687971D01*
X149767865Y-94664871D01*
X149761904Y-94641073D01*
X149758304Y-94616804D01*
X149757100Y-94592300D01*
X149757100Y-93342300D01*
X149758304Y-93317796D01*
X149761904Y-93293527D01*
X149767865Y-93269729D01*
X149776130Y-93246629D01*
X149786620Y-93224451D01*
X149799233Y-93203407D01*
X149813847Y-93183702D01*
X149830323Y-93165523D01*
X149848502Y-93149047D01*
X149868207Y-93134433D01*
X149889251Y-93121820D01*
X149911429Y-93111330D01*
X149934529Y-93103065D01*
X149958327Y-93097104D01*
X149982596Y-93093504D01*
X150007100Y-93092300D01*
X150932100Y-93092300D01*
X150956604Y-93093504D01*
X150956604Y-93093504D01*
G37*
D20*
G04 #@! TD*
G04 #@! TO.P,2K,1*
G04 #@! TO.N,GND*
X150469600Y-93967300D03*
D17*
G04 #@! TO.P,D1,1*
G04 #@! TO.N,GND*
X124891800Y-112903000D03*
D18*
G04 #@! TO.P,D1,2*
G04 #@! TO.N,Net-(150R1-Pad2)*
X124891800Y-114903000D03*
G04 #@! TD*
D19*
G04 #@! TO.N,+5V*
G04 #@! TO.C,150R1*
G36*
X138891604Y-115940804D02*
X138915873Y-115944404D01*
X138939671Y-115950365D01*
X138962771Y-115958630D01*
X138984949Y-115969120D01*
X139005993Y-115981733D01*
X139025698Y-115996347D01*
X139043877Y-116012823D01*
X139060353Y-116031002D01*
X139074967Y-116050707D01*
X139087580Y-116071751D01*
X139098070Y-116093929D01*
X139106335Y-116117029D01*
X139112296Y-116140827D01*
X139115896Y-116165096D01*
X139117100Y-116189600D01*
X139117100Y-117439600D01*
X139115896Y-117464104D01*
X139112296Y-117488373D01*
X139106335Y-117512171D01*
X139098070Y-117535271D01*
X139087580Y-117557449D01*
X139074967Y-117578493D01*
X139060353Y-117598198D01*
X139043877Y-117616377D01*
X139025698Y-117632853D01*
X139005993Y-117647467D01*
X138984949Y-117660080D01*
X138962771Y-117670570D01*
X138939671Y-117678835D01*
X138915873Y-117684796D01*
X138891604Y-117688396D01*
X138867100Y-117689600D01*
X137942100Y-117689600D01*
X137917596Y-117688396D01*
X137893327Y-117684796D01*
X137869529Y-117678835D01*
X137846429Y-117670570D01*
X137824251Y-117660080D01*
X137803207Y-117647467D01*
X137783502Y-117632853D01*
X137765323Y-117616377D01*
X137748847Y-117598198D01*
X137734233Y-117578493D01*
X137721620Y-117557449D01*
X137711130Y-117535271D01*
X137702865Y-117512171D01*
X137696904Y-117488373D01*
X137693304Y-117464104D01*
X137692100Y-117439600D01*
X137692100Y-116189600D01*
X137693304Y-116165096D01*
X137696904Y-116140827D01*
X137702865Y-116117029D01*
X137711130Y-116093929D01*
X137721620Y-116071751D01*
X137734233Y-116050707D01*
X137748847Y-116031002D01*
X137765323Y-116012823D01*
X137783502Y-115996347D01*
X137803207Y-115981733D01*
X137824251Y-115969120D01*
X137846429Y-115958630D01*
X137869529Y-115950365D01*
X137893327Y-115944404D01*
X137917596Y-115940804D01*
X137942100Y-115939600D01*
X138867100Y-115939600D01*
X138891604Y-115940804D01*
X138891604Y-115940804D01*
G37*
D20*
G04 #@! TD*
G04 #@! TO.P,150R1,1*
G04 #@! TO.N,+5V*
X138404600Y-116814600D03*
D19*
G04 #@! TO.N,Net-(150R1-Pad2)*
G04 #@! TO.C,150R1*
G36*
X135916604Y-115940804D02*
X135940873Y-115944404D01*
X135964671Y-115950365D01*
X135987771Y-115958630D01*
X136009949Y-115969120D01*
X136030993Y-115981733D01*
X136050698Y-115996347D01*
X136068877Y-116012823D01*
X136085353Y-116031002D01*
X136099967Y-116050707D01*
X136112580Y-116071751D01*
X136123070Y-116093929D01*
X136131335Y-116117029D01*
X136137296Y-116140827D01*
X136140896Y-116165096D01*
X136142100Y-116189600D01*
X136142100Y-117439600D01*
X136140896Y-117464104D01*
X136137296Y-117488373D01*
X136131335Y-117512171D01*
X136123070Y-117535271D01*
X136112580Y-117557449D01*
X136099967Y-117578493D01*
X136085353Y-117598198D01*
X136068877Y-117616377D01*
X136050698Y-117632853D01*
X136030993Y-117647467D01*
X136009949Y-117660080D01*
X135987771Y-117670570D01*
X135964671Y-117678835D01*
X135940873Y-117684796D01*
X135916604Y-117688396D01*
X135892100Y-117689600D01*
X134967100Y-117689600D01*
X134942596Y-117688396D01*
X134918327Y-117684796D01*
X134894529Y-117678835D01*
X134871429Y-117670570D01*
X134849251Y-117660080D01*
X134828207Y-117647467D01*
X134808502Y-117632853D01*
X134790323Y-117616377D01*
X134773847Y-117598198D01*
X134759233Y-117578493D01*
X134746620Y-117557449D01*
X134736130Y-117535271D01*
X134727865Y-117512171D01*
X134721904Y-117488373D01*
X134718304Y-117464104D01*
X134717100Y-117439600D01*
X134717100Y-116189600D01*
X134718304Y-116165096D01*
X134721904Y-116140827D01*
X134727865Y-116117029D01*
X134736130Y-116093929D01*
X134746620Y-116071751D01*
X134759233Y-116050707D01*
X134773847Y-116031002D01*
X134790323Y-116012823D01*
X134808502Y-115996347D01*
X134828207Y-115981733D01*
X134849251Y-115969120D01*
X134871429Y-115958630D01*
X134894529Y-115950365D01*
X134918327Y-115944404D01*
X134942596Y-115940804D01*
X134967100Y-115939600D01*
X135892100Y-115939600D01*
X135916604Y-115940804D01*
X135916604Y-115940804D01*
G37*
D20*
G04 #@! TD*
G04 #@! TO.P,150R1,2*
G04 #@! TO.N,Net-(150R1-Pad2)*
X135429600Y-116814600D03*
D21*
G04 #@! TO.N,/9(\002A\002A)*
X163614100Y-82677000D03*
G04 #@! TO.N,/8*
X167081101Y-81965701D03*
G04 #@! TO.N,/7*
X165442900Y-80137000D03*
G04 #@! TO.N,/4*
X141865600Y-87363300D03*
G04 #@! TD*
D22*
G04 #@! TO.N,+5V*
X149098000Y-117221000D02*
X149034500Y-117157500D01*
X149098000Y-123825000D02*
X149098000Y-117221000D01*
X158153100Y-109650900D02*
X158153100Y-109601000D01*
X150646500Y-117157500D02*
X158153100Y-109650900D01*
X149034500Y-117157500D02*
X150646500Y-117157500D01*
X148691600Y-116814600D02*
X149034500Y-117157500D01*
X138404600Y-116814600D02*
X148691600Y-116814600D01*
G04 #@! TO.N,GND*
X157353101Y-102780999D02*
X158153100Y-101981000D01*
X150646501Y-109487599D02*
X157353101Y-102780999D01*
X150646501Y-113005499D02*
X150646501Y-109487599D01*
X149034500Y-114617500D02*
X150646501Y-113005499D01*
X151638000Y-123825000D02*
X154178000Y-123825000D01*
X158153100Y-101650800D02*
X158153100Y-101981000D01*
X134456800Y-85661500D02*
X134785100Y-85989800D01*
X143840200Y-85989800D02*
X144259300Y-86408900D01*
X134785100Y-85989800D02*
X143840200Y-85989800D01*
X158153100Y-99441000D02*
X158153100Y-101981000D01*
X165773100Y-99441000D02*
X165773100Y-101981000D01*
X167335101Y-103543001D02*
X166573099Y-102780999D01*
X166573099Y-102780999D02*
X165773100Y-101981000D01*
X167335101Y-111010601D02*
X167335101Y-103543001D01*
X167182701Y-111163001D02*
X167335101Y-111010601D01*
X166687599Y-111163001D02*
X167182701Y-111163001D01*
X154178000Y-123672600D02*
X166687599Y-111163001D01*
X154178000Y-123825000D02*
X154178000Y-123672600D01*
X150469600Y-92619200D02*
X150469600Y-93967300D01*
X144259300Y-86408900D02*
X150469600Y-92619200D01*
X155943300Y-99441000D02*
X158153100Y-99441000D01*
X150469600Y-93967300D02*
X155943300Y-99441000D01*
X132437500Y-83642200D02*
X134785100Y-85989800D01*
X125056900Y-83642200D02*
X132437500Y-83642200D01*
D23*
G04 #@! TO.N,/9(\002A\002A)*
X164719100Y-109601000D02*
X163614100Y-108496000D01*
X165773100Y-109601000D02*
X164719100Y-109601000D01*
X163614100Y-108496000D02*
X163614100Y-82677000D01*
G04 #@! TO.N,/8*
X167081101Y-93052999D02*
X167081101Y-81965701D01*
X165773100Y-94361000D02*
X167081101Y-93052999D01*
G04 #@! TO.N,/7*
X164973101Y-106261001D02*
X165773100Y-107061000D01*
X164465099Y-105752999D02*
X164973101Y-106261001D01*
X164465099Y-81114801D02*
X164465099Y-105752999D01*
X165442900Y-80137000D02*
X164465099Y-81114801D01*
G04 #@! TO.N,/6(\002A\002A)*
X159258000Y-76835000D02*
X159258000Y-75565000D01*
X159334101Y-76911101D02*
X159258000Y-76835000D01*
X159334101Y-93179999D02*
X159334101Y-76911101D01*
X158153100Y-94361000D02*
X159334101Y-93179999D01*
G04 #@! TO.N,/5(\002A\002A)*
X158153100Y-107061000D02*
X162598100Y-107061000D01*
X162598100Y-77635100D02*
X162598100Y-88023700D01*
X161798000Y-76835000D02*
X162598100Y-77635100D01*
X161798000Y-75565000D02*
X161798000Y-76835000D01*
X162598100Y-107061000D02*
X162598100Y-88023700D01*
X162598100Y-88023700D02*
X162598100Y-87630000D01*
G04 #@! TO.N,/4*
X147329500Y-94132400D02*
X147494600Y-93967300D01*
X147329500Y-100838000D02*
X147329500Y-94132400D01*
X147494600Y-92992300D02*
X141865600Y-87363300D01*
X147494600Y-93967300D02*
X147494600Y-92992300D01*
X141865600Y-87363300D02*
X141865600Y-87363300D01*
G04 #@! TO.N,/10(\002A\002A/SS)*
X147574000Y-81241900D02*
X158153100Y-91821000D01*
X147574000Y-75565000D02*
X147574000Y-81241900D01*
D22*
G04 #@! TO.N,+6V*
X134613400Y-83661500D02*
X134785100Y-83489800D01*
X143840200Y-83489800D02*
X144259300Y-83908900D01*
X134785100Y-83489800D02*
X143840200Y-83489800D01*
D23*
G04 #@! TO.N,Net-(J1-Pad4)*
X150304500Y-108267500D02*
X150304500Y-100838000D01*
X149034500Y-109537500D02*
X150304500Y-108267500D01*
D22*
G04 #@! TO.N,Net-(150R1-Pad2)*
X133518000Y-114903000D02*
X135429600Y-116814600D01*
X124891800Y-114903000D02*
X133518000Y-114903000D01*
G04 #@! TD*
M02*
