G04 #@! TF.GenerationSoftware,KiCad,Pcbnew,5.0.0-fee4fd1~66~ubuntu18.04.1*
G04 #@! TF.CreationDate,2018-08-21T18:43:40-07:00*
G04 #@! TF.ProjectId,L293D BlueTooth UNO Shield,4C3239334420426C7565546F6F746820,rev?*
G04 #@! TF.SameCoordinates,Original*
G04 #@! TF.FileFunction,Copper,L2,Bot,Signal*
G04 #@! TF.FilePolarity,Positive*
%FSLAX46Y46*%
G04 Gerber Fmt 4.6, Leading zero omitted, Abs format (unit mm)*
G04 Created by KiCad (PCBNEW 5.0.0-fee4fd1~66~ubuntu18.04.1) date Tue Aug 21 18:43:40 2018*
%MOMM*%
%LPD*%
G01*
G04 APERTURE LIST*
G04 #@! TA.AperFunction,ComponentPad*
%ADD10O,1.727200X2.032000*%
G04 #@! TD*
G04 #@! TA.AperFunction,ComponentPad*
%ADD11C,4.064000*%
G04 #@! TD*
G04 #@! TA.AperFunction,ComponentPad*
%ADD12R,1.600000X1.600000*%
G04 #@! TD*
G04 #@! TA.AperFunction,ComponentPad*
%ADD13O,1.600000X1.600000*%
G04 #@! TD*
G04 #@! TA.AperFunction,ComponentPad*
%ADD14C,1.600000*%
G04 #@! TD*
G04 #@! TA.AperFunction,ComponentPad*
%ADD15R,1.700000X1.700000*%
G04 #@! TD*
G04 #@! TA.AperFunction,ComponentPad*
%ADD16O,1.700000X1.700000*%
G04 #@! TD*
G04 #@! TA.AperFunction,ComponentPad*
%ADD17R,1.750000X1.200000*%
G04 #@! TD*
G04 #@! TA.AperFunction,ComponentPad*
%ADD18O,1.750000X1.200000*%
G04 #@! TD*
G04 #@! TA.AperFunction,ViaPad*
%ADD19C,0.685800*%
G04 #@! TD*
G04 #@! TA.AperFunction,Conductor*
%ADD20C,0.762000*%
G04 #@! TD*
G04 #@! TA.AperFunction,Conductor*
%ADD21C,0.254000*%
G04 #@! TD*
G04 APERTURE END LIST*
D10*
G04 #@! TO.P,P1,1*
G04 #@! TO.N,Net-(P1-Pad1)*
X138938000Y-123825000D03*
G04 #@! TO.P,P1,2*
G04 #@! TO.N,Net-(P1-Pad2)*
X141478000Y-123825000D03*
G04 #@! TO.P,P1,3*
G04 #@! TO.N,Net-(P1-Pad3)*
X144018000Y-123825000D03*
G04 #@! TO.P,P1,4*
G04 #@! TO.N,+3V3*
X146558000Y-123825000D03*
G04 #@! TO.P,P1,5*
G04 #@! TO.N,+5V*
X149098000Y-123825000D03*
G04 #@! TO.P,P1,6*
G04 #@! TO.N,GND*
X151638000Y-123825000D03*
G04 #@! TO.P,P1,7*
X154178000Y-123825000D03*
G04 #@! TO.P,P1,8*
G04 #@! TO.N,Net-(P1-Pad8)*
X156718000Y-123825000D03*
G04 #@! TD*
G04 #@! TO.P,P2,1*
G04 #@! TO.N,Net-(P2-Pad1)*
X161798000Y-123825000D03*
G04 #@! TO.P,P2,2*
G04 #@! TO.N,Net-(P2-Pad2)*
X164338000Y-123825000D03*
G04 #@! TO.P,P2,3*
G04 #@! TO.N,Net-(P2-Pad3)*
X166878000Y-123825000D03*
G04 #@! TO.P,P2,4*
G04 #@! TO.N,Net-(P2-Pad4)*
X169418000Y-123825000D03*
G04 #@! TO.P,P2,5*
G04 #@! TO.N,Net-(P2-Pad5)*
X171958000Y-123825000D03*
G04 #@! TO.P,P2,6*
G04 #@! TO.N,Net-(P2-Pad6)*
X174498000Y-123825000D03*
G04 #@! TD*
G04 #@! TO.P,P3,1*
G04 #@! TO.N,Net-(P3-Pad1)*
X129794000Y-75565000D03*
G04 #@! TO.P,P3,2*
G04 #@! TO.N,Net-(P3-Pad2)*
X132334000Y-75565000D03*
G04 #@! TO.P,P3,3*
G04 #@! TO.N,Net-(P3-Pad3)*
X134874000Y-75565000D03*
G04 #@! TO.P,P3,4*
G04 #@! TO.N,GND*
X137414000Y-75565000D03*
G04 #@! TO.P,P3,5*
G04 #@! TO.N,Net-(P3-Pad5)*
X139954000Y-75565000D03*
G04 #@! TO.P,P3,6*
G04 #@! TO.N,Net-(P3-Pad6)*
X142494000Y-75565000D03*
G04 #@! TO.P,P3,7*
G04 #@! TO.N,Net-(P3-Pad7)*
X145034000Y-75565000D03*
G04 #@! TO.P,P3,8*
G04 #@! TO.N,/10(\002A\002A/SS)*
X147574000Y-75565000D03*
G04 #@! TO.P,P3,9*
G04 #@! TO.N,/9(\002A\002A)*
X150114000Y-75565000D03*
G04 #@! TO.P,P3,10*
G04 #@! TO.N,/8*
X152654000Y-75565000D03*
G04 #@! TD*
G04 #@! TO.P,P4,1*
G04 #@! TO.N,/7*
X156718000Y-75565000D03*
G04 #@! TO.P,P4,2*
G04 #@! TO.N,/6(\002A\002A)*
X159258000Y-75565000D03*
G04 #@! TO.P,P4,3*
G04 #@! TO.N,/5(\002A\002A)*
X161798000Y-75565000D03*
G04 #@! TO.P,P4,4*
G04 #@! TO.N,/4*
X164338000Y-75565000D03*
G04 #@! TO.P,P4,5*
G04 #@! TO.N,/3(\002A\002A)*
X166878000Y-75565000D03*
G04 #@! TO.P,P4,6*
G04 #@! TO.N,Net-(P4-Pad6)*
X169418000Y-75565000D03*
G04 #@! TO.P,P4,7*
G04 #@! TO.N,Net-(P4-Pad7)*
X171958000Y-75565000D03*
G04 #@! TO.P,P4,8*
G04 #@! TO.N,Net-(P4-Pad8)*
X174498000Y-75565000D03*
G04 #@! TD*
D11*
G04 #@! TO.P,P5,1*
G04 #@! TO.N,Net-(P5-Pad1)*
X124968000Y-123825000D03*
G04 #@! TD*
G04 #@! TO.P,P6,1*
G04 #@! TO.N,Net-(P6-Pad1)*
X177038000Y-118745000D03*
G04 #@! TD*
G04 #@! TO.P,P7,1*
G04 #@! TO.N,Net-(P7-Pad1)*
X126238000Y-75565000D03*
G04 #@! TD*
G04 #@! TO.P,P8,1*
G04 #@! TO.N,Net-(P8-Pad1)*
X177038000Y-90805000D03*
G04 #@! TD*
D12*
G04 #@! TO.P,U1,1*
G04 #@! TO.N,/9(\002A\002A)*
X165773100Y-109601000D03*
D13*
G04 #@! TO.P,U1,9*
G04 #@! TO.N,/10(\002A\002A/SS)*
X158153100Y-91821000D03*
G04 #@! TO.P,U1,2*
G04 #@! TO.N,/7*
X165773100Y-107061000D03*
G04 #@! TO.P,U1,10*
G04 #@! TO.N,/6(\002A\002A)*
X158153100Y-94361000D03*
G04 #@! TO.P,U1,3*
G04 #@! TO.N,Net-(J3-Pad2)*
X165773100Y-104521000D03*
G04 #@! TO.P,U1,11*
G04 #@! TO.N,Net-(J3-Pad3)*
X158153100Y-96901000D03*
G04 #@! TO.P,U1,4*
G04 #@! TO.N,GND*
X165773100Y-101981000D03*
G04 #@! TO.P,U1,12*
X158153100Y-99441000D03*
G04 #@! TO.P,U1,5*
X165773100Y-99441000D03*
G04 #@! TO.P,U1,13*
X158153100Y-101981000D03*
G04 #@! TO.P,U1,6*
G04 #@! TO.N,Net-(J3-Pad1)*
X165773100Y-96901000D03*
G04 #@! TO.P,U1,14*
G04 #@! TO.N,Net-(J3-Pad4)*
X158153100Y-104521000D03*
G04 #@! TO.P,U1,7*
G04 #@! TO.N,/8*
X165773100Y-94361000D03*
G04 #@! TO.P,U1,15*
G04 #@! TO.N,/5(\002A\002A)*
X158153100Y-107061000D03*
G04 #@! TO.P,U1,8*
G04 #@! TO.N,+6V*
X165773100Y-91821000D03*
G04 #@! TO.P,U1,16*
G04 #@! TO.N,+5V*
X158153100Y-109601000D03*
G04 #@! TD*
D14*
G04 #@! TO.P,C1,1*
G04 #@! TO.N,+6V*
X134785100Y-83489800D03*
G04 #@! TO.P,C1,2*
G04 #@! TO.N,GND*
X134785100Y-85989800D03*
G04 #@! TD*
D12*
G04 #@! TO.P,C2,1*
G04 #@! TO.N,+6V*
X144259300Y-83908900D03*
D14*
G04 #@! TO.P,C2,2*
G04 #@! TO.N,GND*
X144259300Y-86408900D03*
G04 #@! TD*
D15*
G04 #@! TO.P,J1,1*
G04 #@! TO.N,+5V*
X149034500Y-117157500D03*
D16*
G04 #@! TO.P,J1,2*
G04 #@! TO.N,GND*
X149034500Y-114617500D03*
G04 #@! TO.P,J1,3*
G04 #@! TO.N,/3(\002A\002A)*
X149034500Y-112077500D03*
G04 #@! TO.P,J1,4*
G04 #@! TO.N,Net-(J1-Pad4)*
X149034500Y-109537500D03*
G04 #@! TD*
D17*
G04 #@! TO.P,J2,1*
G04 #@! TO.N,GND*
X125056900Y-83642200D03*
D18*
G04 #@! TO.P,J2,2*
G04 #@! TO.N,+6V*
X125056900Y-85642200D03*
G04 #@! TD*
D17*
G04 #@! TO.P,J3,1*
G04 #@! TO.N,Net-(J3-Pad1)*
X125133100Y-94602300D03*
D18*
G04 #@! TO.P,J3,2*
G04 #@! TO.N,Net-(J3-Pad2)*
X125133100Y-96602300D03*
G04 #@! TO.P,J3,3*
G04 #@! TO.N,Net-(J3-Pad3)*
X125133100Y-98602300D03*
G04 #@! TO.P,J3,4*
G04 #@! TO.N,Net-(J3-Pad4)*
X125133100Y-100602300D03*
G04 #@! TD*
D17*
G04 #@! TO.P,D1,1*
G04 #@! TO.N,GND*
X124891800Y-112903000D03*
D18*
G04 #@! TO.P,D1,2*
G04 #@! TO.N,Net-(150R1-Pad2)*
X124891800Y-114903000D03*
G04 #@! TD*
D19*
G04 #@! TO.N,/9(\002A\002A)*
X163614100Y-82677000D03*
G04 #@! TO.N,/8*
X167081101Y-81965701D03*
G04 #@! TO.N,/7*
X165442900Y-80137000D03*
G04 #@! TO.N,/4*
X141865600Y-87363300D03*
G04 #@! TD*
D20*
G04 #@! TO.N,GND*
X151638000Y-116018919D02*
X151638000Y-123825000D01*
X150236581Y-114617500D02*
X151638000Y-116018919D01*
X149034500Y-114617500D02*
X150236581Y-114617500D01*
X137414000Y-83360900D02*
X134785100Y-85989800D01*
X137414000Y-75565000D02*
X137414000Y-83360900D01*
X147320000Y-112903000D02*
X149034500Y-114617500D01*
X124891800Y-112903000D02*
X147320000Y-112903000D01*
D21*
G04 #@! TO.N,/9(\002A\002A)*
X155956000Y-82677000D02*
X163614100Y-82677000D01*
X150114000Y-76835000D02*
X155956000Y-82677000D01*
X150114000Y-75565000D02*
X150114000Y-76835000D01*
G04 #@! TO.N,/8*
X166738202Y-81622802D02*
X167081101Y-81965701D01*
X157441802Y-81622802D02*
X166738202Y-81622802D01*
X152654000Y-76835000D02*
X157441802Y-81622802D01*
X152654000Y-75565000D02*
X152654000Y-76835000D01*
G04 #@! TO.N,/7*
X156718000Y-75717400D02*
X156718000Y-75565000D01*
X161163000Y-80162400D02*
X156718000Y-75717400D01*
X165442900Y-80137000D02*
X161163000Y-80162400D01*
G04 #@! TO.N,/4*
X141865600Y-80645944D02*
X146329390Y-76182154D01*
X141865600Y-87363300D02*
X141865600Y-80645944D01*
X147007686Y-74167990D02*
X146329390Y-74846286D01*
X163093390Y-74167990D02*
X147007686Y-74167990D01*
X164338000Y-75412600D02*
X163093390Y-74167990D01*
X164338000Y-75565000D02*
X164338000Y-75412600D01*
X146329390Y-75819000D02*
X146329390Y-74897066D01*
X146329390Y-74846286D02*
X146329390Y-75819000D01*
X146329390Y-76182154D02*
X146329390Y-75819000D01*
G04 #@! TO.N,/3(\002A\002A)*
X166878000Y-75717400D02*
X166878000Y-75565000D01*
X169367121Y-78206521D02*
X166878000Y-75717400D01*
X169367121Y-111852290D02*
X169367121Y-78206521D01*
X165128710Y-116090700D02*
X169367121Y-111852290D01*
X153047700Y-116090700D02*
X165128710Y-116090700D01*
X149034500Y-112077500D02*
X153047700Y-116090700D01*
D20*
G04 #@! TO.N,+6V*
X165773100Y-91821000D02*
X168300400Y-91821000D01*
X168300400Y-91821000D02*
X168338500Y-91782900D01*
X168338500Y-91782900D02*
X168338500Y-83921600D01*
X168325800Y-83908900D02*
X144259300Y-83908900D01*
X168338500Y-83921600D02*
X168325800Y-83908900D01*
X131501330Y-85642200D02*
X126693900Y-85642200D01*
X126693900Y-85642200D02*
X125056900Y-85642200D01*
X133653730Y-83489800D02*
X131501330Y-85642200D01*
X134785100Y-83489800D02*
X133653730Y-83489800D01*
G04 #@! TO.N,Net-(J3-Pad1)*
X165773100Y-96901000D02*
X159131099Y-90258999D01*
X131113401Y-90258999D02*
X140970000Y-90258999D01*
X126770100Y-94602300D02*
X131113401Y-90258999D01*
X125133100Y-94602300D02*
X126770100Y-94602300D01*
X159131099Y-90258999D02*
X140970000Y-90258999D01*
X140970000Y-90258999D02*
X140550801Y-90258999D01*
G04 #@! TO.N,Net-(J3-Pad2)*
X157403339Y-111163001D02*
X154165837Y-107925499D01*
X165773100Y-104521000D02*
X159131099Y-111163001D01*
X159131099Y-111163001D02*
X157403339Y-111163001D01*
X129477839Y-107925499D02*
X140144500Y-107925499D01*
X123496090Y-101943750D02*
X129477839Y-107925499D01*
X123496090Y-97964310D02*
X123496090Y-101943750D01*
X124858100Y-96602300D02*
X123496090Y-97964310D01*
X125133100Y-96602300D02*
X124858100Y-96602300D01*
X140144500Y-107925499D02*
X139622901Y-107925499D01*
X154165837Y-107925499D02*
X140144500Y-107925499D01*
G04 #@! TO.N,Net-(J3-Pad3)*
X158153100Y-96901000D02*
X157353101Y-97700999D01*
X126770100Y-98602300D02*
X127671401Y-97700999D01*
X125133100Y-98602300D02*
X126770100Y-98602300D01*
X127671401Y-97700999D02*
X140055600Y-97700999D01*
X157353101Y-97700999D02*
X140055600Y-97700999D01*
X140055600Y-97700999D02*
X137020401Y-97700999D01*
G04 #@! TO.N,Net-(J3-Pad4)*
X158153100Y-104521000D02*
X157353101Y-105320999D01*
X125133100Y-101964300D02*
X128489799Y-105320999D01*
X128489799Y-105320999D02*
X142405100Y-105320999D01*
X125133100Y-100602300D02*
X125133100Y-101964300D01*
X157353101Y-105320999D02*
X142405100Y-105320999D01*
X142405100Y-105320999D02*
X140500201Y-105320999D01*
G04 #@! TD*
M02*
