M48
;DRILL file {KiCad 5.0.0-fee4fd1~66~ubuntu18.04.1} date Tue Aug 21 18:43:44 2018
;FORMAT={-:-/ absolute / inch / decimal}
FMAT,2
INCH,TZ
T1C0.0130
T2C0.0295
T3C0.0315
T4C0.0394
T5C0.0400
T6C0.1200
%
G90
G05
M72
T1
X5.5853Y-3.4395
X6.4415Y-3.255
X6.5135Y-3.155
X6.578Y-3.227
T2
X4.917Y-4.445
X4.917Y-4.5237
X4.9265Y-3.7245
X4.9265Y-3.8032
X4.9265Y-3.882
X4.9265Y-3.9607
X4.9235Y-3.293
X4.9235Y-3.3717
T3
X5.3065Y-3.287
X5.3065Y-3.3854
X6.2265Y-3.615
X6.2265Y-3.715
X6.2265Y-3.815
X6.2265Y-3.915
X6.2265Y-4.015
X6.2265Y-4.115
X6.2265Y-4.215
X6.2265Y-4.315
X6.5265Y-3.615
X6.5265Y-3.715
X6.5265Y-3.815
X6.5265Y-3.915
X6.5265Y-4.015
X6.5265Y-4.115
X6.5265Y-4.215
X6.5265Y-4.315
X5.6795Y-3.3035
X5.6795Y-3.4019
T4
X5.8675Y-4.3125
X5.8675Y-4.4125
X5.8675Y-4.5125
X5.8675Y-4.6125
T5
X6.17Y-2.975
X6.27Y-2.975
X6.37Y-2.975
X6.47Y-2.975
X6.57Y-2.975
X6.67Y-2.975
X6.77Y-2.975
X6.87Y-2.975
X5.11Y-2.975
X5.21Y-2.975
X5.31Y-2.975
X5.41Y-2.975
X5.51Y-2.975
X5.61Y-2.975
X5.71Y-2.975
X5.81Y-2.975
X5.91Y-2.975
X6.01Y-2.975
X6.37Y-4.875
X6.47Y-4.875
X6.57Y-4.875
X6.67Y-4.875
X6.77Y-4.875
X6.87Y-4.875
X5.47Y-4.875
X5.57Y-4.875
X5.67Y-4.875
X5.77Y-4.875
X5.87Y-4.875
X5.97Y-4.875
X6.07Y-4.875
X6.17Y-4.875
T6
X6.97Y-4.675
X4.92Y-4.875
X4.97Y-2.975
X6.97Y-3.575
T0
M30
